<svg id="svg" version="1.1" xmlns="http://www.w3.org/2000/svg" xmlns:xlink="http://www.w3.org/1999/xlink" width="400" height="400" viewBox="0, 0, 400,400"><g id="svgg"><path id="path0" d="M127.000 14.350 C 120.218 15.187,112.351 18.321,107.331 22.184 C 103.527 25.110,62.678 65.606,60.110 68.995 C 49.360 83.185,49.308 102.923,59.982 117.222 C 62.761 120.944,91.140 149.044,94.239 151.141 L 96.644 152.769 107.905 141.743 C 114.099 135.679,120.288 129.580,121.658 128.192 C 123.029 126.803,124.280 125.667,124.439 125.667 C 124.597 125.667,139.796 140.629,158.214 158.917 C 196.238 196.672,194.789 195.421,201.584 196.366 C 209.887 197.521,216.617 194.382,225.686 185.121 C 234.393 176.232,237.192 168.843,235.053 160.387 C 233.699 155.033,234.285 155.648,170.912 93.019 L 163.991 86.179 177.680 72.487 L 191.369 58.794 189.392 55.814 C 186.822 51.941,159.040 24.175,155.000 21.442 C 146.707 15.833,136.314 13.200,127.000 14.350 M327.868 214.445 L 326.570 217.167 299.035 244.590 C 259.986 283.481,256.359 286.955,253.157 288.537 L 250.579 289.811 251.794 290.862 C 256.193 294.664,263.414 296.223,269.463 294.676 L 272.033 294.019 273.866 295.512 C 279.980 300.492,288.454 301.307,295.762 297.619 L 297.725 296.628 300.633 299.431 C 307.850 306.389,317.611 307.620,325.868 302.616 C 329.613 300.346,342.458 286.874,343.959 283.643 C 347.822 275.323,346.253 266.994,339.571 260.338 L 336.865 257.644 337.482 256.072 C 340.596 248.139,339.803 241.109,335.104 234.996 L 333.436 232.825 333.924 231.496 C 335.871 226.198,334.111 217.323,330.246 212.945 L 329.167 211.723 327.868 214.445 M191.833 321.310 C 187.249 322.419,185.962 330.885,190.167 332.274 C 194.636 333.749,198.006 331.205,198.253 326.167 C 198.459 321.974,196.189 320.256,191.833 321.310 M285.167 321.310 C 280.583 322.419,279.295 330.885,283.500 332.274 C 287.970 333.749,291.339 331.205,291.587 326.167 C 291.793 321.974,289.523 320.256,285.167 321.310 M234.333 321.857 C 234.333 321.962,232.758 331.954,230.833 344.063 C 228.908 356.172,227.333 366.286,227.333 366.540 C 227.333 366.908,228.217 367.000,231.767 367.000 L 236.201 367.000 237.616 357.917 C 239.410 346.408,239.605 346.004,243.392 346.001 C 246.067 345.999,246.850 347.844,246.025 352.205 C 244.385 360.878,244.483 363.883,246.471 365.871 C 248.421 367.821,252.524 368.270,255.542 366.864 C 257.690 365.864,257.604 366.036,257.871 362.240 L 258.095 359.051 256.717 359.235 C 254.030 359.596,253.905 358.953,255.167 351.268 C 256.576 342.682,256.067 339.899,252.800 338.317 C 249.391 336.667,244.114 337.378,241.562 339.832 C 240.252 341.091,240.239 341.467,241.860 331.333 C 242.666 326.292,243.328 322.054,243.330 321.917 C 243.332 321.779,241.308 321.667,238.833 321.667 C 236.358 321.667,234.333 321.752,234.333 321.857 M263.830 340.417 C 260.633 360.419,260.387 363.055,261.531 365.014 C 263.002 367.532,267.760 368.505,271.254 367.002 C 273.547 366.016,273.563 365.988,273.836 362.295 L 274.072 359.091 272.377 359.254 C 269.710 359.510,269.693 360.170,272.865 340.321 C 274.401 330.703,275.661 322.571,275.663 322.250 C 275.666 321.724,275.235 321.667,271.247 321.667 L 266.827 321.667 263.830 340.417 M327.667 321.857 C 327.667 321.962,326.092 331.954,324.167 344.063 C 322.242 356.172,320.667 366.286,320.667 366.540 C 320.667 366.908,321.551 367.000,325.101 367.000 L 329.534 367.000 330.950 357.917 C 332.743 346.408,332.939 346.004,336.726 346.001 C 339.400 345.999,340.183 347.844,339.359 352.205 C 337.718 360.878,337.816 363.883,339.804 365.871 C 341.754 367.821,345.857 368.270,348.876 366.864 C 351.024 365.864,350.937 366.036,351.204 362.240 L 351.428 359.051 350.051 359.235 C 347.364 359.596,347.239 358.953,348.500 351.268 C 349.909 342.682,349.400 339.899,346.133 338.317 C 342.724 336.667,337.448 337.378,334.895 339.832 C 333.586 341.091,333.572 341.467,335.193 331.333 C 336.000 326.292,336.661 322.054,336.663 321.917 C 336.665 321.779,334.642 321.667,332.167 321.667 C 329.692 321.667,327.667 321.752,327.667 321.857 M33.746 338.679 C 30.727 357.620,30.360 358.500,25.465 358.500 C 21.849 358.500,20.594 356.484,21.262 351.750 L 21.556 349.667 16.805 349.667 L 12.053 349.667 11.878 350.583 C 9.582 362.616,12.478 367.106,22.833 367.573 C 32.004 367.986,37.272 364.829,39.868 357.363 C 40.383 355.882,41.513 349.731,43.008 340.275 C 44.292 332.149,45.428 325.087,45.531 324.583 L 45.720 323.667 40.929 323.667 L 36.138 323.667 33.746 338.679 M153.312 324.083 C 153.301 324.129,151.758 333.767,149.884 345.500 L 146.478 366.833 151.130 366.926 C 153.761 366.979,155.866 366.884,155.975 366.708 C 156.080 366.537,156.683 363.007,157.314 358.865 L 158.461 351.333 163.730 351.333 C 168.755 351.333,169.000 351.364,169.000 351.991 C 169.000 352.625,167.196 364.209,166.805 366.083 L 166.614 367.000 171.436 367.000 L 176.259 367.000 176.455 365.917 C 176.751 364.279,183.000 324.447,183.000 324.198 C 183.000 324.079,180.864 324.023,178.252 324.074 L 173.505 324.167 172.102 332.833 C 171.330 337.600,170.692 341.613,170.683 341.750 C 170.674 341.887,168.267 342.000,165.333 342.000 C 162.400 342.000,160.001 341.887,160.002 341.750 C 160.003 341.613,160.603 337.778,161.335 333.228 C 162.067 328.679,162.667 324.742,162.667 324.478 C 162.667 324.067,153.415 323.677,153.312 324.083 M115.003 330.517 C 111.627 332.118,110.447 332.839,110.270 333.408 C 109.517 335.833,106.299 358.315,106.492 359.806 C 107.210 365.348,110.294 367.500,117.518 367.500 L 121.869 367.500 124.417 366.241 C 128.193 364.374,130.566 361.223,131.810 356.425 C 132.666 353.119,132.926 353.333,128.061 353.333 L 123.788 353.333 123.219 355.141 C 121.952 359.160,118.555 360.608,116.590 357.967 C 115.781 356.880,115.764 355.209,116.512 350.352 L 117.079 346.667 124.513 346.667 L 131.947 346.667 132.129 345.750 C 132.229 345.246,132.468 343.858,132.660 342.667 C 132.852 341.475,133.088 340.012,133.186 339.417 L 133.364 338.333 126.015 338.333 L 118.667 338.333 118.668 337.417 C 118.668 336.912,118.894 335.150,119.170 333.500 C 119.446 331.850,119.752 330.012,119.851 329.417 C 120.077 328.050,120.319 327.996,115.003 330.517 M362.667 330.522 C 358.823 332.342,358.130 332.787,357.914 333.576 C 357.070 336.668,353.970 358.328,354.160 359.806 C 354.814 364.892,357.854 367.286,364.044 367.593 C 372.020 367.988,376.816 364.711,379.170 357.259 C 380.491 353.079,380.714 353.333,375.728 353.333 L 371.455 353.333 370.858 355.229 C 369.603 359.208,366.218 360.602,364.246 357.952 C 363.416 356.838,363.399 354.983,364.177 350.245 L 364.764 346.667 372.189 346.667 L 379.614 346.667 379.801 345.750 C 379.904 345.246,380.143 343.783,380.333 342.500 C 380.523 341.217,380.763 339.754,380.866 339.250 L 381.053 338.333 373.693 338.333 L 366.333 338.333 366.333 337.496 C 366.333 336.708,367.127 331.255,367.534 329.250 C 367.773 328.072,367.931 328.030,362.667 330.522 M88.134 337.807 C 82.437 339.106,79.407 342.248,78.791 347.494 C 78.171 352.780,80.664 354.965,88.693 356.171 C 93.442 356.884,94.757 357.994,92.736 359.583 C 91.247 360.754,86.000 359.904,86.000 358.492 C 86.000 357.941,82.850 357.817,79.014 358.218 L 76.931 358.436 77.057 360.671 C 77.340 365.683,80.639 367.675,88.629 367.661 C 97.757 367.644,102.333 364.392,102.333 357.922 C 102.333 353.466,100.359 351.491,94.936 350.522 C 88.422 349.357,87.154 348.661,88.068 346.753 C 89.304 344.175,95.000 344.393,95.000 347.019 L 95.000 348.000 99.126 348.000 C 104.198 348.000,105.048 347.079,104.191 342.512 C 103.431 338.459,95.484 336.131,88.134 337.807 M209.802 337.660 C 203.841 338.915,201.189 342.700,199.640 352.167 C 198.165 361.177,198.932 365.258,202.369 366.681 L 203.339 367.083 201.154 369.085 C 197.769 372.187,196.673 375.286,197.685 378.897 C 199.628 385.837,211.768 386.235,217.532 379.548 C 221.077 375.437,221.615 373.570,224.519 355.333 C 225.876 346.808,227.044 339.496,227.114 339.083 C 227.240 338.341,227.203 338.333,223.287 338.333 C 219.596 338.333,219.333 338.376,219.333 338.980 C 219.333 339.878,218.831 340.100,218.288 339.442 C 217.099 338.002,212.634 337.064,209.802 337.660 M303.136 337.660 C 297.174 338.915,294.523 342.700,292.973 352.167 C 291.498 361.177,292.266 365.258,295.702 366.681 L 296.672 367.083 294.487 369.085 C 291.103 372.187,290.007 375.286,291.018 378.897 C 292.961 385.837,305.102 386.235,310.866 379.548 C 314.410 375.437,314.949 373.570,317.852 355.333 C 319.209 346.808,320.377 339.496,320.447 339.083 C 320.573 338.341,320.536 338.333,316.620 338.333 C 312.929 338.333,312.667 338.376,312.667 338.980 C 312.667 339.878,312.164 340.100,311.621 339.442 C 310.432 338.002,305.968 337.064,303.136 337.660 M47.201 348.325 C 45.328 360.054,45.210 362.179,46.303 364.437 C 48.603 369.188,57.782 368.751,61.470 363.715 L 62.289 362.597 62.639 363.898 C 63.567 367.344,68.403 368.792,72.542 366.864 C 74.673 365.872,74.551 366.117,74.835 362.295 L 75.072 359.091 73.377 359.254 C 70.812 359.500,70.805 359.405,72.523 348.815 C 73.324 343.875,73.984 339.496,73.990 339.083 C 74.000 338.343,73.945 338.333,69.570 338.333 L 65.141 338.333 63.686 347.583 C 62.886 352.671,62.091 357.110,61.920 357.448 C 61.445 358.389,58.803 359.433,57.512 359.191 C 54.868 358.695,54.773 357.536,56.487 346.740 C 57.136 342.656,57.667 339.093,57.667 338.824 C 57.667 338.417,56.912 338.333,53.232 338.333 L 48.797 338.333 47.201 348.325 M186.503 339.083 C 185.760 342.255,183.333 359.159,183.333 361.171 C 183.333 365.618,184.892 367.310,189.263 367.605 C 194.307 367.945,196.025 366.631,196.254 362.256 L 196.421 359.052 195.047 359.236 C 193.364 359.462,192.666 358.965,192.668 357.543 C 192.670 356.597,195.086 340.872,195.504 339.083 C 195.679 338.334,195.676 338.333,191.179 338.333 C 186.787 338.333,186.675 338.351,186.503 339.083 M279.837 339.083 C 279.093 342.255,276.667 359.159,276.667 361.171 C 276.667 365.618,278.226 367.310,282.596 367.605 C 287.641 367.945,289.358 366.631,289.587 362.256 L 289.755 359.052 288.381 359.236 C 286.697 359.462,285.999 358.965,286.002 357.543 C 286.003 356.597,288.419 340.872,288.837 339.083 C 289.013 338.334,289.009 338.333,284.513 338.333 C 280.120 338.333,280.008 338.351,279.837 339.083 M216.031 346.624 L 216.802 347.249 215.984 352.507 C 215.032 358.631,214.685 359.167,211.669 359.167 C 208.426 359.167,207.717 357.278,208.813 351.552 C 209.764 346.583,213.136 344.281,216.031 346.624 M309.364 346.624 L 310.135 347.249 309.318 352.507 C 308.365 358.631,308.018 359.167,305.002 359.167 C 301.759 359.167,301.051 357.278,302.146 351.552 C 303.097 346.583,306.469 344.281,309.364 346.624 M213.799 366.417 C 212.370 374.831,209.968 377.998,207.152 375.182 C 205.037 373.067,207.011 369.354,211.833 366.376 C 213.919 365.087,214.025 365.089,213.799 366.417 M307.133 366.417 C 305.704 374.831,303.301 377.998,300.485 375.182 C 298.370 373.067,300.344 369.354,305.167 366.376 C 307.252 365.087,307.358 365.089,307.133 366.417 " stroke="none" fill="#2c2e2d" fill-rule="evenodd"></path><path id="path1" d="M177.833 72.525 L 164.167 85.973 198.566 120.237 C 231.047 152.590,233.020 154.621,233.943 156.667 C 237.399 164.319,235.932 173.378,230.050 180.725 C 227.417 184.013,220.599 190.610,218.333 192.060 C 208.397 198.423,202.315 200.125,195.368 198.488 C 190.093 197.244,191.702 198.688,155.065 162.339 C 136.676 144.094,121.451 129.126,121.232 129.077 C 121.013 129.028,115.388 134.436,108.734 141.095 L 96.634 153.203 154.734 210.860 C 234.385 289.905,231.339 286.932,234.201 288.420 C 241.329 292.127,249.951 291.277,256.500 286.219 C 257.600 285.370,273.830 269.411,292.567 250.754 L 326.633 216.833 327.949 214.000 C 331.130 207.151,330.794 199.894,327.030 194.158 C 325.907 192.447,255.939 122.656,201.167 68.614 L 191.500 59.076 177.833 72.525 M343.860 284.254 C 342.196 287.536,328.919 301.143,325.553 303.015 L 323.606 304.098 328.882 309.382 L 334.159 314.667 236.413 314.667 L 138.667 314.667 138.667 351.667 L 138.667 388.667 263.833 388.667 L 389.000 388.667 389.000 351.667 L 389.000 314.667 373.618 314.667 L 358.235 314.667 361.218 311.583 C 364.488 308.202,365.236 306.654,364.926 303.903 C 364.636 301.333,363.779 300.274,354.418 290.919 L 345.167 281.675 343.860 284.254 M197.404 322.304 C 198.677 323.729,198.723 328.541,197.479 330.206 C 195.459 332.911,190.574 333.577,188.639 331.411 C 186.779 329.329,187.521 323.750,189.878 322.098 C 192.155 320.503,195.886 320.605,197.404 322.304 M290.737 322.304 C 292.010 323.729,292.056 328.541,290.813 330.206 C 288.792 332.911,283.907 333.577,281.973 331.411 C 280.112 329.329,280.854 323.750,283.211 322.098 C 285.488 320.503,289.219 320.605,290.737 322.304 M243.380 321.491 C 243.467 321.578,242.895 325.666,242.109 330.575 C 240.379 341.372,240.396 340.582,241.917 339.362 C 244.388 337.380,248.327 336.773,251.876 337.827 C 256.055 339.068,256.783 342.218,255.167 352.066 C 253.997 359.193,254.211 360.022,256.974 359.059 L 258.000 358.701 258.000 361.959 C 258.000 366.323,256.492 367.789,252.000 367.789 C 245.180 367.790,243.871 365.034,245.528 354.167 C 246.602 347.130,246.287 346.000,243.250 346.000 C 239.897 346.000,239.512 346.819,237.848 357.500 C 237.191 361.717,236.569 365.579,236.467 366.083 L 236.280 367.000 231.634 367.000 L 226.987 367.000 227.157 366.250 C 227.251 365.837,228.828 355.975,230.662 344.333 C 232.496 332.692,234.085 322.754,234.192 322.250 L 234.386 321.333 238.804 321.333 C 241.234 321.333,243.293 321.405,243.380 321.491 M276.000 321.439 C 276.000 321.497,274.725 329.523,273.167 339.275 C 269.699 360.975,269.725 359.900,272.692 359.108 L 274.000 358.759 274.000 362.017 C 274.000 366.680,271.326 368.594,266.039 367.718 C 259.664 366.662,259.599 365.921,263.648 340.710 C 265.308 330.376,266.667 321.789,266.667 321.627 C 266.667 321.466,268.767 321.333,271.333 321.333 C 273.900 321.333,276.000 321.381,276.000 321.439 M336.714 321.491 C 336.801 321.578,336.228 325.666,335.442 330.575 C 333.712 341.372,333.729 340.582,335.250 339.362 C 337.721 337.380,341.660 336.773,345.209 337.827 C 349.388 339.068,350.116 342.218,348.500 352.066 C 347.330 359.193,347.545 360.022,350.307 359.059 L 351.333 358.701 351.333 361.959 C 351.333 366.323,349.825 367.789,345.333 367.789 C 338.514 367.790,337.204 365.034,338.862 354.167 C 339.935 347.130,339.620 346.000,336.584 346.000 C 333.230 346.000,332.845 346.819,331.181 357.500 C 330.524 361.717,329.903 365.579,329.800 366.083 L 329.614 367.000 324.967 367.000 L 320.321 367.000 320.490 366.250 C 320.584 365.837,322.161 355.975,323.995 344.333 C 325.830 332.692,327.418 322.754,327.525 322.250 L 327.720 321.333 332.138 321.333 C 334.567 321.333,336.627 321.405,336.714 321.491 M162.843 324.750 C 162.740 325.346,162.133 329.133,161.495 333.167 C 160.857 337.200,160.256 340.837,160.161 341.250 L 159.987 342.000 165.267 342.000 L 170.547 342.000 170.942 339.417 C 171.160 337.996,171.809 333.871,172.386 330.250 L 173.435 323.667 178.198 323.667 C 180.817 323.667,183.018 323.779,183.087 323.917 C 183.157 324.054,181.696 333.767,179.840 345.500 L 176.466 366.833 171.566 366.926 C 168.469 366.984,166.667 366.896,166.667 366.685 C 166.667 366.503,167.192 363.044,167.833 359.000 C 168.475 354.956,169.000 351.576,169.000 351.490 C 169.000 350.946,158.703 351.366,158.551 351.917 C 158.463 352.238,157.896 355.762,157.293 359.750 L 156.195 367.000 151.222 367.000 L 146.250 367.000 146.430 366.083 C 146.529 365.579,148.054 356.017,149.819 344.833 C 151.585 333.650,153.093 324.313,153.171 324.083 C 153.275 323.776,154.582 323.667,158.171 323.667 L 163.030 323.667 162.843 324.750 M367.660 328.917 C 367.656 329.237,367.356 331.300,366.993 333.500 C 366.630 335.700,366.333 337.612,366.333 337.750 C 366.333 337.887,369.633 338.000,373.667 338.000 L 381.000 338.000 380.979 338.917 C 380.968 339.421,380.702 341.333,380.387 343.167 L 379.816 346.500 372.330 346.667 L 364.844 346.833 364.247 350.500 C 363.179 357.064,363.762 359.000,366.808 359.000 C 368.580 359.000,369.834 357.794,370.688 355.268 L 371.286 353.500 375.819 353.407 L 380.351 353.314 380.146 354.241 C 377.608 365.735,368.003 371.164,358.464 366.497 C 353.450 364.044,353.233 362.234,355.902 345.093 L 357.833 332.687 362.500 330.513 C 367.692 328.093,367.669 328.100,367.660 328.917 M215.377 337.673 C 216.043 337.858,217.118 338.369,217.765 338.809 L 218.943 339.608 219.144 338.804 C 219.359 337.950,227.333 337.482,227.333 338.324 C 227.333 340.087,222.161 370.511,221.512 372.565 C 219.098 380.206,214.144 384.167,207.000 384.167 C 196.905 384.167,193.593 375.543,201.113 368.835 C 202.243 367.827,202.980 367.002,202.751 367.001 C 201.781 366.998,199.666 364.578,199.169 362.902 C 198.073 359.212,199.550 348.248,201.731 343.889 C 204.306 338.744,209.959 336.168,215.377 337.673 M308.711 337.673 C 309.376 337.858,310.451 338.369,311.098 338.809 L 312.276 339.608 312.478 338.804 C 312.692 337.950,320.667 337.482,320.667 338.324 C 320.667 340.087,315.494 370.511,314.845 372.565 C 312.432 380.206,307.477 384.167,300.333 384.167 C 290.238 384.167,286.927 375.543,294.446 368.835 C 295.576 367.827,296.313 367.002,296.084 367.001 C 295.115 366.998,292.999 364.578,292.502 362.902 C 291.406 359.212,292.884 348.248,295.065 343.889 C 297.639 338.744,303.293 336.168,308.711 337.673 M195.667 338.342 C 195.667 338.531,194.992 342.893,194.167 348.037 C 193.342 353.180,192.667 357.679,192.667 358.035 C 192.667 358.984,194.125 359.558,195.357 359.093 L 196.333 358.725 196.333 362.189 L 196.333 365.653 194.612 366.636 C 189.261 369.692,183.563 367.413,183.100 362.029 C 182.964 360.450,185.884 340.165,186.499 338.417 C 186.687 337.884,195.667 337.811,195.667 338.342 M289.000 338.342 C 289.000 338.531,288.325 342.893,287.500 348.037 C 286.675 353.180,286.000 357.679,286.000 358.035 C 286.000 358.984,287.459 359.558,288.690 359.093 L 289.667 358.725 289.667 362.189 L 289.667 365.653 287.946 366.636 C 282.594 369.692,276.897 367.413,276.433 362.029 C 276.297 360.450,279.218 340.165,279.833 338.417 C 280.020 337.884,289.000 337.811,289.000 338.342 M211.433 346.633 C 209.701 347.721,208.340 351.955,208.335 356.265 C 208.332 358.788,212.072 360.053,214.178 358.242 C 215.378 357.209,217.085 347.609,216.221 346.745 C 215.388 345.912,212.681 345.849,211.433 346.633 M304.766 346.633 C 303.035 347.721,301.673 351.955,301.668 356.265 C 301.665 358.788,305.405 360.053,307.511 358.242 C 308.711 357.209,310.418 347.609,309.555 346.745 C 308.722 345.912,306.015 345.849,304.766 346.633 M211.087 367.022 C 206.137 370.256,204.591 375.667,208.616 375.667 C 211.052 375.667,212.267 373.914,213.198 369.054 C 213.966 365.046,214.025 365.103,211.087 367.022 M304.420 367.022 C 299.470 370.256,297.924 375.667,301.950 375.667 C 304.386 375.667,305.600 373.914,306.531 369.054 C 307.299 365.046,307.358 365.103,304.420 367.022 " stroke="none" fill="#f1d104" fill-rule="evenodd"></path><path id="path2" d="M0.000 200.000 L 0.000 400.000 200.000 400.000 L 400.000 400.000 400.000 200.000 L 400.000 0.000 200.000 0.000 L 0.000 0.000 0.000 200.000 M138.324 14.515 C 144.482 15.513,150.909 18.255,156.138 22.113 C 161.214 25.858,187.003 51.893,189.705 56.000 C 191.901 59.337,195.121 62.588,258.821 125.775 C 300.931 167.545,326.098 192.748,326.887 193.937 C 329.976 198.590,330.750 203.469,329.487 210.335 C 329.299 211.359,329.441 211.714,330.630 213.208 C 334.559 218.143,335.961 225.305,334.165 231.263 L 333.633 233.026 335.005 234.585 C 339.701 239.919,340.869 248.668,337.809 255.586 L 336.995 257.427 339.752 260.297 C 345.243 266.013,347.556 273.835,345.579 280.000 L 345.098 281.500 354.657 291.167 C 364.723 301.346,365.000 301.708,365.000 304.667 C 365.000 307.081,364.271 308.413,361.211 311.583 L 358.235 314.667 373.618 314.667 L 389.000 314.667 389.000 351.667 L 389.000 388.667 263.833 388.667 L 138.667 388.667 138.667 351.667 L 138.667 314.667 236.413 314.667 L 334.159 314.667 328.867 309.367 L 323.575 304.067 321.748 304.696 C 314.292 307.261,306.625 305.407,300.427 299.540 L 297.644 296.906 295.072 298.092 C 288.024 301.342,280.139 300.519,274.028 295.895 L 271.890 294.276 270.028 294.784 C 263.815 296.476,257.329 295.223,252.167 291.332 L 250.167 289.825 248.500 290.214 C 244.028 291.257,238.269 290.535,234.201 288.421 C 231.305 286.916,234.796 290.321,155.833 211.963 C 123.017 179.398,95.096 151.946,93.787 150.960 C 90.113 148.191,61.447 119.650,59.344 116.667 C 48.491 101.272,49.550 79.955,61.825 66.687 C 68.350 59.635,105.815 22.939,108.044 21.418 C 117.071 15.255,127.803 12.808,138.324 14.515 M45.667 324.123 C 45.667 325.319,40.917 354.394,40.459 356.000 C 38.147 364.113,32.910 367.831,23.833 367.802 C 13.246 367.768,9.656 363.185,11.452 352.000 L 11.854 349.500 16.690 349.408 L 21.527 349.316 21.513 352.980 C 21.498 357.302,21.860 357.953,24.442 358.244 C 30.110 358.883,30.499 358.064,33.503 339.167 C 34.698 331.650,35.760 325.087,35.864 324.583 L 36.053 323.667 40.860 323.667 C 44.708 323.667,45.667 323.758,45.667 324.123 M120.000 328.917 C 120.000 329.237,119.703 331.300,119.340 333.500 C 118.977 335.700,118.677 337.612,118.674 337.750 C 118.670 337.887,121.967 338.000,126.000 338.000 C 132.737 338.000,133.333 338.047,133.333 338.578 C 133.333 338.896,133.081 340.846,132.772 342.911 L 132.211 346.667 124.808 346.667 C 119.025 346.667,117.368 346.762,117.238 347.102 C 116.805 348.230,115.910 355.940,116.117 356.758 C 117.172 360.935,123.281 358.668,123.326 354.083 C 123.333 353.342,123.385 353.333,128.006 353.333 L 132.679 353.333 132.477 354.250 C 130.251 364.349,124.171 369.024,114.959 367.721 C 105.997 366.454,105.204 363.712,108.261 344.578 L 110.167 332.655 114.667 330.524 C 119.615 328.180,120.000 328.064,120.000 328.917 M100.885 338.511 C 103.897 339.984,105.308 343.242,104.276 346.341 L 103.779 347.833 99.251 347.926 C 94.823 348.016,94.728 348.004,94.904 347.332 C 95.464 345.191,90.501 344.166,88.631 346.035 C 86.733 347.934,88.143 349.067,93.745 350.143 C 100.370 351.416,102.667 353.377,102.667 357.762 C 102.667 363.382,99.005 366.731,91.815 367.688 C 82.404 368.940,76.290 365.647,76.732 359.563 L 76.833 358.167 81.258 358.074 L 85.682 357.981 86.463 358.888 C 88.039 360.721,93.040 360.247,93.272 358.242 C 93.404 357.106,92.882 356.884,88.833 356.362 C 79.918 355.212,77.077 351.807,79.165 344.776 C 81.064 338.382,93.368 334.833,100.885 338.511 M58.000 338.145 C 58.000 338.225,57.401 342.012,56.668 346.562 C 54.740 358.543,54.845 359.234,58.560 358.926 C 61.741 358.662,61.745 358.652,63.492 347.759 C 64.321 342.585,65.000 338.272,65.000 338.176 C 65.000 338.079,67.100 338.000,69.667 338.000 C 72.233 338.000,74.333 338.079,74.333 338.176 C 74.333 338.272,73.658 342.560,72.833 347.703 C 70.885 359.851,70.885 359.858,73.692 359.108 L 75.000 358.759 75.000 361.988 C 75.000 364.911,74.929 365.282,74.250 365.903 C 70.576 369.263,63.403 368.109,62.503 364.014 L 62.278 362.989 60.815 364.616 C 56.381 369.548,47.183 368.813,45.681 363.406 C 45.098 361.307,45.275 359.324,47.000 348.601 C 47.917 342.902,48.667 338.186,48.667 338.120 C 48.667 338.054,50.767 338.000,53.333 338.000 C 55.900 338.000,58.000 338.065,58.000 338.145 " stroke="none" fill="#fbfbfb" fill-rule="evenodd"></path><path id="path3" d="M184.167 66.000 C 180.320 69.850,177.248 73.000,177.339 73.000 C 177.431 73.000,180.653 69.850,184.500 66.000 C 188.347 62.150,191.419 59.000,191.327 59.000 C 191.236 59.000,188.013 62.150,184.167 66.000 M170.667 92.833 C 174.422 96.592,177.569 99.667,177.661 99.667 C 177.752 99.667,174.755 96.592,171.000 92.833 C 167.245 89.075,164.098 86.000,164.006 86.000 C 163.914 86.000,166.912 89.075,170.667 92.833 M205.333 127.167 C 213.673 135.508,220.572 142.333,220.664 142.333 C 220.756 142.333,214.007 135.508,205.667 127.167 C 197.327 118.825,190.428 112.000,190.336 112.000 C 190.244 112.000,196.993 118.825,205.333 127.167 M122.655 127.169 L 121.153 128.672 134.326 141.756 C 196.064 203.071,189.693 197.150,195.368 198.488 C 201.040 199.824,210.124 197.908,214.167 194.522 C 214.818 193.976,214.815 193.972,214.051 194.344 C 207.464 197.550,199.092 197.161,193.512 193.391 C 192.516 192.718,176.631 177.204,158.214 158.917 C 139.796 140.629,124.599 125.667,124.443 125.667 C 124.286 125.667,123.482 126.343,122.655 127.169 M102.330 147.170 C 98.639 150.866,96.669 152.612,96.333 152.484 C 95.928 152.330,95.914 152.375,96.258 152.721 C 96.602 153.068,97.763 152.068,102.423 147.408 C 105.581 144.250,108.088 141.667,107.995 141.667 C 107.902 141.667,105.352 144.143,102.330 147.170 M235.751 165.167 C 235.754 165.900,235.823 166.161,235.902 165.746 C 235.982 165.331,235.979 164.731,235.896 164.413 C 235.812 164.094,235.747 164.433,235.751 165.167 M224.829 186.083 L 220.500 190.500 224.917 186.171 C 229.019 182.151,229.484 181.667,229.245 181.667 C 229.197 181.667,227.209 183.654,224.829 186.083 M313.998 229.583 L 302.500 241.167 314.083 229.668 C 324.849 218.982,325.817 218.000,325.582 218.000 C 325.535 218.000,320.322 223.213,313.998 229.583 M277.498 265.750 L 263.833 279.500 277.583 265.835 C 285.146 258.319,291.333 252.132,291.333 252.085 C 291.333 251.850,290.200 252.970,277.498 265.750 M334.664 294.583 L 327.833 301.500 334.750 294.670 C 338.554 290.913,341.667 287.801,341.667 287.753 C 341.667 287.516,341.010 288.157,334.664 294.583 M235.667 321.555 C 239.245 321.797,243.593 321.813,243.450 321.583 C 243.364 321.446,241.240 321.360,238.730 321.393 C 236.220 321.426,234.842 321.499,235.667 321.555 M271.061 321.582 C 275.043 321.672,275.640 321.758,275.772 322.259 C 275.882 322.680,275.933 322.633,275.961 322.083 C 276.000 321.336,275.986 321.334,271.250 321.406 L 266.500 321.480 271.061 321.582 M329.000 321.555 C 332.579 321.797,336.926 321.813,336.783 321.583 C 336.697 321.446,334.574 321.360,332.064 321.393 C 329.554 321.426,328.175 321.499,329.000 321.555 M153.153 324.022 C 153.032 324.218,153.023 324.468,153.133 324.578 C 153.243 324.688,153.333 324.603,153.333 324.389 C 153.333 323.815,162.548 323.843,162.779 324.417 C 162.880 324.666,162.958 324.598,162.974 324.250 C 163.005 323.557,153.576 323.338,153.153 324.022 M173.333 323.917 C 173.333 324.054,175.569 324.167,178.302 324.167 C 181.034 324.167,183.200 324.054,183.115 323.917 C 183.030 323.779,180.795 323.667,178.147 323.667 C 175.499 323.667,173.333 323.779,173.333 323.917 M186.556 338.222 C 186.433 338.344,186.336 338.607,186.338 338.806 C 186.342 339.027,186.443 339.010,186.602 338.760 C 186.778 338.482,188.281 338.321,191.347 338.250 L 195.833 338.146 191.306 338.073 C 188.815 338.033,186.678 338.100,186.556 338.222 M221.250 338.247 C 222.396 338.312,224.271 338.312,225.417 338.247 C 226.563 338.182,225.625 338.128,223.333 338.128 C 221.042 338.128,220.104 338.182,221.250 338.247 M279.889 338.222 C 279.767 338.344,279.669 338.607,279.672 338.806 C 279.675 339.027,279.777 339.010,279.935 338.760 C 280.112 338.482,281.614 338.321,284.680 338.250 L 289.167 338.146 284.639 338.073 C 282.149 338.033,280.011 338.100,279.889 338.222 M314.583 338.247 C 315.729 338.312,317.604 338.312,318.750 338.247 C 319.896 338.182,318.958 338.128,316.667 338.128 C 314.375 338.128,313.438 338.182,314.583 338.247 M369.917 338.249 C 371.979 338.307,375.354 338.307,377.417 338.249 C 379.479 338.190,377.792 338.143,373.667 338.143 C 369.542 338.143,367.854 338.190,369.917 338.249 M218.128 339.242 C 218.809 340.047,219.356 339.963,219.295 339.064 C 219.262 338.581,219.233 338.587,219.099 339.108 C 218.946 339.698,218.918 339.698,218.221 339.108 L 217.500 338.500 218.128 339.242 M311.461 339.242 C 312.142 340.047,312.690 339.963,312.628 339.064 C 312.595 338.581,312.567 338.587,312.432 339.108 C 312.280 339.698,312.252 339.698,311.554 339.108 L 310.833 338.500 311.461 339.242 M183.107 361.000 C 183.107 362.192,183.167 362.679,183.241 362.083 C 183.315 361.488,183.315 360.512,183.241 359.917 C 183.167 359.321,183.107 359.808,183.107 361.000 M211.083 359.230 C 211.404 359.314,211.929 359.314,212.250 359.230 C 212.571 359.146,212.308 359.077,211.667 359.077 C 211.025 359.077,210.762 359.146,211.083 359.230 M276.440 361.000 C 276.440 362.192,276.501 362.679,276.574 362.083 C 276.648 361.488,276.648 360.512,276.574 359.917 C 276.501 359.321,276.440 359.808,276.440 361.000 M304.417 359.230 C 304.737 359.314,305.262 359.314,305.583 359.230 C 305.904 359.146,305.642 359.077,305.000 359.077 C 304.358 359.077,304.096 359.146,304.417 359.230 M366.083 359.230 C 366.404 359.314,366.929 359.314,367.250 359.230 C 367.571 359.146,367.308 359.077,366.667 359.077 C 366.025 359.077,365.762 359.146,366.083 359.230 M273.762 363.833 C 273.765 364.750,273.829 365.085,273.906 364.579 C 273.982 364.072,273.980 363.322,273.901 362.912 C 273.822 362.502,273.760 362.917,273.762 363.833 M257.751 364.167 C 257.754 364.900,257.823 365.161,257.902 364.746 C 257.982 364.331,257.979 363.731,257.896 363.413 C 257.812 363.094,257.747 363.433,257.751 364.167 M351.084 364.167 C 351.088 364.900,351.156 365.161,351.236 364.746 C 351.315 364.331,351.312 363.731,351.229 363.413 C 351.146 363.094,351.080 363.433,351.084 364.167 M195.960 364.927 C 195.851 365.590,195.899 365.901,196.084 365.716 C 196.252 365.548,196.334 365.055,196.266 364.622 C 196.161 363.955,196.114 364.001,195.960 364.927 M289.294 364.927 C 289.184 365.590,289.233 365.901,289.418 365.716 C 289.586 365.548,289.667 365.055,289.599 364.622 C 289.494 363.955,289.447 364.001,289.294 364.927 M189.587 367.902 C 190.002 367.982,190.602 367.979,190.921 367.896 C 191.239 367.812,190.900 367.747,190.167 367.751 C 189.433 367.754,189.173 367.823,189.587 367.902 M251.417 367.896 C 251.737 367.980,252.262 367.980,252.583 367.896 C 252.904 367.813,252.642 367.744,252.000 367.744 C 251.358 367.744,251.096 367.813,251.417 367.896 M267.254 367.902 C 267.669 367.982,268.269 367.979,268.587 367.896 C 268.906 367.812,268.567 367.747,267.833 367.751 C 267.100 367.754,266.839 367.823,267.254 367.902 M282.921 367.902 C 283.335 367.982,283.935 367.979,284.254 367.896 C 284.573 367.812,284.233 367.747,283.500 367.751 C 282.767 367.754,282.506 367.823,282.921 367.902 M344.750 367.896 C 345.071 367.980,345.596 367.980,345.917 367.896 C 346.238 367.813,345.975 367.744,345.333 367.744 C 344.692 367.744,344.429 367.813,344.750 367.896 M364.250 367.902 C 364.662 367.981,365.337 367.981,365.750 367.902 C 366.162 367.822,365.825 367.757,365.000 367.757 C 364.175 367.757,363.837 367.822,364.250 367.902 M200.151 369.750 L 198.833 371.167 200.250 369.849 C 201.567 368.624,201.820 368.333,201.568 368.333 C 201.513 368.333,200.876 368.971,200.151 369.750 M293.484 369.750 L 292.167 371.167 293.583 369.849 C 294.901 368.624,295.153 368.333,294.901 368.333 C 294.847 368.333,294.209 368.971,293.484 369.750 " stroke="none" fill="#837106" fill-rule="evenodd"></path><path id="path4" d="M127.750 14.230 C 128.071 14.314,128.596 14.314,128.917 14.230 C 129.237 14.146,128.975 14.077,128.333 14.077 C 127.692 14.077,127.429 14.146,127.750 14.230 M134.417 14.230 C 134.737 14.314,135.262 14.314,135.583 14.230 C 135.904 14.146,135.642 14.077,135.000 14.077 C 134.358 14.077,134.096 14.146,134.417 14.230 M93.331 35.250 L 83.167 45.500 93.417 35.335 C 99.054 29.745,103.667 25.132,103.667 25.085 C 103.667 24.850,102.778 25.724,93.331 35.250 M173.833 39.333 C 181.348 46.850,187.572 53.000,187.664 53.000 C 187.755 53.000,181.682 46.850,174.167 39.333 C 166.652 31.817,160.428 25.667,160.336 25.667 C 160.245 25.667,166.318 31.817,173.833 39.333 M64.484 63.750 L 63.167 65.167 64.583 63.849 C 65.362 63.124,66.000 62.487,66.000 62.432 C 66.000 62.180,65.710 62.433,64.484 63.750 M51.785 93.167 C 51.784 94.817,51.840 95.534,51.910 94.760 C 51.980 93.986,51.981 92.636,51.912 91.760 C 51.843 90.884,51.786 91.517,51.785 93.167 M66.333 124.500 C 68.619 126.792,70.565 128.667,70.657 128.667 C 70.748 128.667,68.953 126.792,66.667 124.500 C 64.381 122.208,62.435 120.333,62.343 120.333 C 62.252 120.333,64.047 122.208,66.333 124.500 M90.333 148.167 C 90.955 148.808,91.539 149.333,91.631 149.333 C 91.722 149.333,91.289 148.808,90.667 148.167 C 90.045 147.525,89.461 147.000,89.369 147.000 C 89.278 147.000,89.711 147.525,90.333 148.167 M128.667 185.104 C 128.667 185.162,129.154 185.649,129.750 186.188 L 130.833 187.167 129.854 186.083 C 128.942 185.074,128.667 184.847,128.667 185.104 M334.781 225.500 C 334.782 226.967,334.841 227.525,334.911 226.741 C 334.982 225.957,334.981 224.757,334.909 224.075 C 334.837 223.392,334.780 224.033,334.781 225.500 M171.667 227.771 C 171.667 227.828,172.154 228.316,172.750 228.854 L 173.833 229.833 172.854 228.750 C 171.942 227.740,171.667 227.513,171.667 227.771 M339.440 247.333 C 339.440 248.525,339.501 249.012,339.574 248.417 C 339.648 247.821,339.648 246.846,339.574 246.250 C 339.501 245.654,339.440 246.142,339.440 247.333 M338.000 258.833 C 338.622 259.475,339.206 260.000,339.297 260.000 C 339.389 260.000,338.955 259.475,338.333 258.833 C 337.711 258.192,337.128 257.667,337.036 257.667 C 336.944 257.667,337.378 258.192,338.000 258.833 M215.000 270.771 C 215.000 270.828,215.487 271.316,216.083 271.854 L 217.167 272.833 216.188 271.750 C 215.275 270.740,215.000 270.513,215.000 270.771 M346.091 275.000 C 346.091 275.825,346.156 276.162,346.235 275.750 C 346.315 275.337,346.315 274.662,346.235 274.250 C 346.156 273.837,346.091 274.175,346.091 275.000 M271.667 294.235 C 271.942 294.336,272.542 294.737,273.000 295.126 L 273.833 295.833 273.025 294.917 C 272.581 294.412,271.981 294.012,271.692 294.026 C 271.242 294.049,271.239 294.079,271.667 294.235 M263.755 295.573 C 264.261 295.649,265.011 295.647,265.421 295.568 C 265.831 295.489,265.417 295.426,264.500 295.429 C 263.583 295.431,263.248 295.496,263.755 295.573 M297.370 296.750 C 297.452 296.796,298.639 297.883,300.009 299.167 L 302.500 301.500 300.176 299.083 C 298.897 297.754,297.710 296.667,297.537 296.667 C 297.364 296.667,297.289 296.704,297.370 296.750 M53.061 338.249 C 57.043 338.339,57.640 338.425,57.772 338.926 C 57.882 339.347,57.933 339.300,57.961 338.750 C 58.000 338.002,57.986 338.000,53.250 338.073 L 48.500 338.146 53.061 338.249 M69.394 338.249 C 73.377 338.339,73.974 338.425,74.105 338.926 C 74.216 339.347,74.266 339.300,74.295 338.750 C 74.333 338.002,74.319 338.000,69.583 338.073 L 64.833 338.146 69.394 338.249 M122.250 338.249 C 124.313 338.307,127.688 338.307,129.750 338.249 C 131.813 338.190,130.125 338.143,126.000 338.143 C 121.875 338.143,120.188 338.190,122.250 338.249 M104.417 344.500 C 104.421 345.233,104.489 345.494,104.569 345.079 C 104.649 344.665,104.646 344.065,104.562 343.746 C 104.479 343.427,104.414 343.767,104.417 344.500 M11.782 349.848 C 11.673 350.131,11.678 350.456,11.792 350.570 C 11.906 350.684,12.000 350.532,12.000 350.231 C 12.000 349.754,12.623 349.672,16.917 349.583 L 21.833 349.481 16.906 349.407 C 12.727 349.345,11.949 349.411,11.782 349.848 M21.091 354.000 C 21.091 354.825,21.156 355.162,21.235 354.750 C 21.315 354.337,21.315 353.662,21.235 353.250 C 21.156 352.837,21.091 353.175,21.091 354.000 M102.437 357.833 C 102.438 358.933,102.501 359.343,102.575 358.744 C 102.649 358.145,102.648 357.245,102.572 356.744 C 102.495 356.243,102.435 356.733,102.437 357.833 M45.417 359.167 C 45.421 359.900,45.489 360.161,45.569 359.746 C 45.649 359.331,45.646 358.731,45.562 358.413 C 45.479 358.094,45.414 358.433,45.417 359.167 M76.802 358.462 C 76.704 358.716,76.683 359.578,76.754 360.379 C 76.883 361.833,76.884 361.833,76.942 360.102 L 77.000 358.372 78.417 358.244 L 79.833 358.116 78.406 358.058 C 77.455 358.019,76.920 358.154,76.802 358.462 M24.921 358.569 C 25.335 358.649,25.935 358.646,26.254 358.562 C 26.573 358.479,26.233 358.414,25.500 358.417 C 24.767 358.421,24.506 358.489,24.921 358.569 M118.417 359.230 C 118.737 359.314,119.263 359.314,119.583 359.230 C 119.904 359.146,119.642 359.077,119.000 359.077 C 118.358 359.077,118.096 359.146,118.417 359.230 M74.762 363.833 C 74.765 364.750,74.829 365.085,74.906 364.579 C 74.982 364.072,74.980 363.322,74.901 362.912 C 74.822 362.502,74.760 362.917,74.762 363.833 M99.812 364.417 L 98.833 365.500 99.917 364.521 C 100.926 363.608,101.153 363.333,100.896 363.333 C 100.838 363.333,100.351 363.821,99.812 364.417 M12.667 363.771 C 12.667 363.828,13.154 364.316,13.750 364.854 L 14.833 365.833 13.854 364.750 C 12.942 363.740,12.667 363.513,12.667 363.771 M22.917 367.908 C 23.512 367.982,24.488 367.982,25.083 367.908 C 25.679 367.834,25.192 367.773,24.000 367.773 C 22.808 367.773,22.321 367.834,22.917 367.908 M52.755 367.906 C 53.261 367.982,54.011 367.980,54.421 367.901 C 54.831 367.822,54.417 367.760,53.500 367.762 C 52.583 367.765,52.248 367.829,52.755 367.906 M68.254 367.902 C 68.669 367.982,69.269 367.979,69.587 367.896 C 69.906 367.812,69.567 367.747,68.833 367.751 C 68.100 367.754,67.839 367.823,68.254 367.902 M87.243 367.907 C 87.834 367.981,88.884 367.982,89.576 367.910 C 90.267 367.838,89.783 367.778,88.500 367.776 C 87.217 367.775,86.651 367.834,87.243 367.907 M116.589 367.908 C 117.188 367.982,118.088 367.981,118.589 367.905 C 119.090 367.829,118.600 367.768,117.500 367.770 C 116.400 367.772,115.990 367.834,116.589 367.908 " stroke="none" fill="#969696" fill-rule="evenodd"></path></g></svg>